<mxfile host="app.diagrams.net" modified="2024-03-06T19:38:17.432Z" agent="Mozilla/5.0 (X11; Linux x86_64; rv:123.0) Gecko/20100101 Firefox/123.0" etag="GO9zEdynJE94DyjgyjhF" version="24.0.2" type="device">
  <diagram name="Page-1" id="97916047-d0de-89f5-080d-49f4d83e522f">
    <mxGraphModel dx="1026" dy="531" grid="1" gridSize="10" guides="1" tooltips="1" connect="1" arrows="1" fold="1" page="1" pageScale="1.5" pageWidth="1169" pageHeight="827" background="none" math="0" shadow="0">
      <root>
        <mxCell id="0" />
        <mxCell id="1" parent="0" />
        <mxCell id="1lQeRE7lXD1x9lntRKUU-55" value="Users Table" style="shape=cylinder3;whiteSpace=wrap;html=1;boundedLbl=1;backgroundOutline=1;size=15;" vertex="1" parent="1">
          <mxGeometry x="720" y="518" width="160" height="110" as="geometry" />
        </mxCell>
        <mxCell id="1lQeRE7lXD1x9lntRKUU-56" value="Content Table" style="shape=cylinder3;whiteSpace=wrap;html=1;boundedLbl=1;backgroundOutline=1;size=15;" vertex="1" parent="1">
          <mxGeometry x="720" y="670" width="160" height="110" as="geometry" />
        </mxCell>
        <mxCell id="1lQeRE7lXD1x9lntRKUU-57" value="Actions Table" style="shape=cylinder3;whiteSpace=wrap;html=1;boundedLbl=1;backgroundOutline=1;size=15;" vertex="1" parent="1">
          <mxGeometry x="720" y="850" width="160" height="110" as="geometry" />
        </mxCell>
        <mxCell id="1lQeRE7lXD1x9lntRKUU-58" value="User" style="rounded=1;whiteSpace=wrap;html=1;" vertex="1" parent="1">
          <mxGeometry x="450" y="695" width="120" height="60" as="geometry" />
        </mxCell>
        <mxCell id="1lQeRE7lXD1x9lntRKUU-59" value="Admin" style="rounded=1;whiteSpace=wrap;html=1;" vertex="1" parent="1">
          <mxGeometry x="1030" y="700" width="120" height="60" as="geometry" />
        </mxCell>
        <mxCell id="1lQeRE7lXD1x9lntRKUU-63" value="" style="edgeStyle=elbowEdgeStyle;elbow=vertical;endArrow=classic;html=1;curved=0;rounded=0;endSize=8;startSize=8;entryX=0;entryY=0.5;entryDx=0;entryDy=0;entryPerimeter=0;" edge="1" parent="1" source="1lQeRE7lXD1x9lntRKUU-58" target="1lQeRE7lXD1x9lntRKUU-56">
          <mxGeometry width="50" height="50" relative="1" as="geometry">
            <mxPoint x="570" y="775" as="sourcePoint" />
            <mxPoint x="710" y="850" as="targetPoint" />
          </mxGeometry>
        </mxCell>
        <mxCell id="1lQeRE7lXD1x9lntRKUU-64" value="Upload" style="edgeLabel;html=1;align=center;verticalAlign=middle;resizable=0;points=[];" vertex="1" connectable="0" parent="1lQeRE7lXD1x9lntRKUU-63">
          <mxGeometry x="-0.0361" y="-1" relative="1" as="geometry">
            <mxPoint y="-10" as="offset" />
          </mxGeometry>
        </mxCell>
        <mxCell id="1lQeRE7lXD1x9lntRKUU-65" value="" style="edgeStyle=elbowEdgeStyle;elbow=horizontal;endArrow=classic;html=1;curved=0;rounded=0;endSize=8;startSize=8;entryX=0;entryY=0.5;entryDx=0;entryDy=0;entryPerimeter=0;" edge="1" parent="1" source="1lQeRE7lXD1x9lntRKUU-58" target="1lQeRE7lXD1x9lntRKUU-57">
          <mxGeometry width="50" height="50" relative="1" as="geometry">
            <mxPoint x="510" y="805" as="sourcePoint" />
            <mxPoint x="510" y="825.7106781186548" as="targetPoint" />
            <Array as="points">
              <mxPoint x="510" y="850" />
            </Array>
          </mxGeometry>
        </mxCell>
        <mxCell id="1lQeRE7lXD1x9lntRKUU-66" value="Like / Dislike" style="text;html=1;align=center;verticalAlign=middle;resizable=0;points=[];autosize=1;strokeColor=none;fillColor=none;spacing=2;spacingTop=-9;" vertex="1" parent="1">
          <mxGeometry x="557" y="890" width="90" height="20" as="geometry" />
        </mxCell>
        <mxCell id="1lQeRE7lXD1x9lntRKUU-75" value="" style="group" vertex="1" connectable="0" parent="1">
          <mxGeometry x="557" y="556" width="110" height="30" as="geometry" />
        </mxCell>
        <mxCell id="1lQeRE7lXD1x9lntRKUU-67" value="" style="edgeStyle=elbowEdgeStyle;elbow=vertical;endArrow=classic;html=1;curved=0;rounded=0;endSize=8;startSize=8;entryX=0.5;entryY=0;entryDx=0;entryDy=0;exitX=-0.006;exitY=0.589;exitDx=0;exitDy=0;exitPerimeter=0;" edge="1" parent="1lQeRE7lXD1x9lntRKUU-75" source="1lQeRE7lXD1x9lntRKUU-55" target="1lQeRE7lXD1x9lntRKUU-58">
          <mxGeometry width="50" height="50" relative="1" as="geometry">
            <mxPoint x="92.28932188134524" y="39" as="sourcePoint" />
            <mxPoint x="92.28932188134524" y="-11" as="targetPoint" />
            <Array as="points">
              <mxPoint x="53" y="24" />
            </Array>
          </mxGeometry>
        </mxCell>
        <mxCell id="1lQeRE7lXD1x9lntRKUU-68" value="Login / Register" style="text;html=1;align=center;verticalAlign=middle;resizable=0;points=[];autosize=1;strokeColor=none;fillColor=none;" vertex="1" parent="1lQeRE7lXD1x9lntRKUU-75">
          <mxGeometry width="110" height="30" as="geometry" />
        </mxCell>
        <mxCell id="1lQeRE7lXD1x9lntRKUU-76" value="" style="group" vertex="1" connectable="0" parent="1">
          <mxGeometry x="960" y="548" width="50" height="30" as="geometry" />
        </mxCell>
        <mxCell id="1lQeRE7lXD1x9lntRKUU-73" style="edgeStyle=orthogonalEdgeStyle;rounded=0;orthogonalLoop=1;jettySize=auto;html=1;" edge="1" parent="1lQeRE7lXD1x9lntRKUU-76" source="1lQeRE7lXD1x9lntRKUU-55" target="1lQeRE7lXD1x9lntRKUU-59">
          <mxGeometry relative="1" as="geometry" />
        </mxCell>
        <mxCell id="1lQeRE7lXD1x9lntRKUU-74" value="Login" style="text;html=1;align=center;verticalAlign=middle;resizable=0;points=[];autosize=1;strokeColor=none;fillColor=none;" vertex="1" parent="1lQeRE7lXD1x9lntRKUU-76">
          <mxGeometry width="50" height="30" as="geometry" />
        </mxCell>
        <mxCell id="1lQeRE7lXD1x9lntRKUU-77" style="edgeStyle=orthogonalEdgeStyle;rounded=0;orthogonalLoop=1;jettySize=auto;html=1;entryX=0.5;entryY=1;entryDx=0;entryDy=0;entryPerimeter=0;" edge="1" parent="1" source="1lQeRE7lXD1x9lntRKUU-57" target="1lQeRE7lXD1x9lntRKUU-56">
          <mxGeometry relative="1" as="geometry" />
        </mxCell>
        <mxCell id="1lQeRE7lXD1x9lntRKUU-80" value="" style="group" vertex="1" connectable="0" parent="1">
          <mxGeometry x="947" y="879" width="143" height="30" as="geometry" />
        </mxCell>
        <mxCell id="1lQeRE7lXD1x9lntRKUU-78" style="edgeStyle=orthogonalEdgeStyle;rounded=0;orthogonalLoop=1;jettySize=auto;html=1;entryX=1;entryY=0.5;entryDx=0;entryDy=0;entryPerimeter=0;" edge="1" parent="1lQeRE7lXD1x9lntRKUU-80" source="1lQeRE7lXD1x9lntRKUU-59" target="1lQeRE7lXD1x9lntRKUU-57">
          <mxGeometry relative="1" as="geometry">
            <Array as="points">
              <mxPoint x="143" y="26" />
            </Array>
          </mxGeometry>
        </mxCell>
        <mxCell id="1lQeRE7lXD1x9lntRKUU-79" value="Like / Dislike" style="text;html=1;align=center;verticalAlign=middle;resizable=0;points=[];autosize=1;strokeColor=none;fillColor=none;" vertex="1" parent="1lQeRE7lXD1x9lntRKUU-80">
          <mxGeometry width="90" height="30" as="geometry" />
        </mxCell>
        <mxCell id="1lQeRE7lXD1x9lntRKUU-81" value="" style="group" vertex="1" connectable="0" parent="1">
          <mxGeometry x="540" y="776" width="260" height="30" as="geometry" />
        </mxCell>
        <mxCell id="1lQeRE7lXD1x9lntRKUU-71" style="edgeStyle=orthogonalEdgeStyle;rounded=0;orthogonalLoop=1;jettySize=auto;html=1;exitX=0.75;exitY=1;exitDx=0;exitDy=0;entryX=0.5;entryY=1;entryDx=0;entryDy=0;entryPerimeter=0;" edge="1" parent="1lQeRE7lXD1x9lntRKUU-81" source="1lQeRE7lXD1x9lntRKUU-58" target="1lQeRE7lXD1x9lntRKUU-56">
          <mxGeometry relative="1" as="geometry">
            <Array as="points">
              <mxPoint y="24" />
              <mxPoint x="260" y="24" />
            </Array>
          </mxGeometry>
        </mxCell>
        <mxCell id="1lQeRE7lXD1x9lntRKUU-72" value="Delete" style="text;html=1;align=center;verticalAlign=middle;resizable=0;points=[];autosize=1;strokeColor=none;fillColor=none;" vertex="1" parent="1lQeRE7lXD1x9lntRKUU-81">
          <mxGeometry x="75" width="60" height="30" as="geometry" />
        </mxCell>
        <mxCell id="1lQeRE7lXD1x9lntRKUU-82" value="" style="group" vertex="1" connectable="0" parent="1">
          <mxGeometry x="934" y="707" width="60" height="30" as="geometry" />
        </mxCell>
        <mxCell id="1lQeRE7lXD1x9lntRKUU-69" value="" style="edgeStyle=elbowEdgeStyle;elbow=horizontal;endArrow=classic;html=1;curved=0;rounded=0;endSize=8;startSize=8;entryX=0.994;entryY=0.552;entryDx=0;entryDy=0;entryPerimeter=0;" edge="1" parent="1lQeRE7lXD1x9lntRKUU-82" source="1lQeRE7lXD1x9lntRKUU-59" target="1lQeRE7lXD1x9lntRKUU-56">
          <mxGeometry width="50" height="50" relative="1" as="geometry">
            <mxPoint x="25.289321881345245" y="68" as="sourcePoint" />
            <mxPoint x="25.289321881345245" y="18" as="targetPoint" />
          </mxGeometry>
        </mxCell>
        <mxCell id="1lQeRE7lXD1x9lntRKUU-70" value="Delete" style="text;html=1;align=center;verticalAlign=middle;resizable=0;points=[];autosize=1;strokeColor=none;fillColor=none;" vertex="1" parent="1lQeRE7lXD1x9lntRKUU-82">
          <mxGeometry width="60" height="30" as="geometry" />
        </mxCell>
      </root>
    </mxGraphModel>
  </diagram>
</mxfile>
